Coordinates
version=1
nRows=14
nColumns=40
inDegrees=yes

Units are S.I. units (second, meters, Newtons, ...)
Angles are in degrees.

endheader
time	pelvis_tilt	pelvis_list	pelvis_rotation	pelvis_tx	pelvis_ty	pelvis_tz	hip_flexion_r	hip_adduction_r	hip_rotation_r	knee_angle_r	knee_angle_r_beta	ankle_angle_r	subtalar_angle_r	mtp_angle_r	hip_flexion_l	hip_adduction_l	hip_rotation_l	knee_angle_l	knee_angle_l_beta	ankle_angle_l	subtalar_angle_l	mtp_angle_l	lumbar_extension	lumbar_bending	lumbar_rotation	arm_flex_r	arm_add_r	arm_rot_r	elbow_flex_r	pro_sup_r	wrist_flex_r	wrist_dev_r	arm_flex_l	arm_add_l	arm_rot_l	elbow_flex_l	pro_sup_l	wrist_flex_l	wrist_dev_l
     53.45500000	     -1.90366548	     -4.64243768	      4.36641470	      1.03597668	      0.93077271	      0.52379472	      9.97539479	      2.11956659	    -16.02730808	     17.58183558	     17.58183558	     11.25062710	     -1.81932714	     -6.68536913	     30.76337588	    -12.92455281	      0.12366939	     35.50202904	     35.50202904	      8.99329184	    -16.97606498	     11.47943424	    -10.97785564	      5.00254189	      3.19880980	     23.05259015	    -17.41575647	     -0.25189806	     67.32241944	     45.00713852	      0.00000000	      0.00000000	      3.54197264	    -11.24354363	     -6.94357491	     48.22716070	     46.85693689	      0.00000000	      0.00000000
     53.46771429	     -1.99694322	     -4.57325082	      4.77182229	      1.03491797	      0.93089082	      0.52315266	      9.55323506	      2.06684156	    -16.28698478	     17.17122278	     17.17122278	     11.33607768	     -1.82548832	     -6.79340179	     30.73125109	    -12.39663646	      0.36879507	     32.00335569	     32.00335569	      8.82701128	    -15.86310766	     11.34888538	    -11.01081698	      5.02296427	      2.76951207	     24.50305257	    -17.15091203	     -0.26463180	     69.95791776	     44.93056922	      0.00000000	      0.00000000	      3.22225355	    -11.45114411	     -7.02915188	     47.07548896	     46.84409613	      0.00000000	      0.00000000
     53.48042857	     -2.22487369	     -4.60411736	      5.14316585	      1.03387176	      0.93068466	      0.52241926	      9.26528014	      2.10273531	    -16.60745388	     16.71333664	     16.71333664	     11.31332142	     -1.74619957	     -7.23265444	     30.87404528	    -12.01332613	      0.56833746	     28.78520473	     28.78520473	      8.16235571	    -14.41038886	      9.87329075	    -10.90371105	      5.15349136	      3.24303025	     24.81558777	    -17.98846826	     -0.18099112	     74.61355544	     44.79674343	      0.00000000	      0.00000000	      3.76157118	    -11.11252732	     -7.42229672	     44.97596346	     46.84394755	      0.00000000	      0.00000000
     53.49314286	     -2.36371903	     -4.48697557	      5.45786804	      1.03289592	      0.93068188	      0.52160563	      8.95465758	      1.98557811	    -16.73344086	     16.43938551	     16.43938551	     11.46069966	     -1.89040621	     -7.29189588	     30.87245013	    -11.50579738	      0.74566271	     25.94552177	     25.94552177	      8.08768558	    -12.69588321	      9.98293850	    -10.86642620	      5.05619638	      3.08387648	     26.38020125	    -17.73524362	     -0.39835690	     76.36652292	     44.75897042	      0.00000000	      0.00000000	      3.43852059	    -11.23822244	     -7.38894331	     44.19475154	     46.82424258	      0.00000000	      0.00000000
     53.50585714	     -2.48560505	     -4.50389960	      5.77279026	      1.03200903	      0.93059304	      0.52067258	      8.56015972	      2.02318873	    -16.89619999	     16.01859015	     16.01859015	     11.54255820	     -1.89504432	     -7.41132710	     31.00744043	    -11.16919421	      0.97998291	     23.71545646	     23.71545646	      7.97585394	    -10.81070510	      9.70682645	    -10.84325514	      5.18282628	      2.90951748	     27.70483835	    -17.60073908	     -0.42952825	     79.26284477	     44.68288432	      0.00000000	      0.00000000	      3.29154130	    -11.29448363	     -7.44111406	     42.87492676	     46.80561302	      0.00000000	      0.00000000
     53.51857143	     -2.62005328	     -4.51856151	      6.03284531	      1.03126123	      0.93048041	      0.51967947	      8.18373664	      2.05751348	    -17.02401101	     15.62118586	     15.62118586	     11.59486465	     -1.92940376	     -7.56550599	     31.17049295	    -10.86825742	      1.11231008	     21.95202172	     21.95202172	      7.85238861	     -9.17226104	      9.30753971	    -10.79254731	      5.24696400	      3.03634470	     28.72187210	    -17.73331388	     -0.45149256	     82.36301438	     44.60538914	      0.00000000	      0.00000000	      3.38490173	    -11.22593669	     -7.52574281	     41.37527955	     46.78805722	      0.00000000	      0.00000000
     53.53128571	     -2.77409342	     -4.51080460	      6.26868042	      1.03063579	      0.93034348	      0.51853748	      7.82037856	      2.05994751	    -17.11389416	     15.22688944	     15.22688944	     11.64464006	     -1.99189204	     -7.73227362	     31.34648532	    -10.55010417	      1.22060792	     20.62267531	     20.62267531	      7.62615463	     -7.91563290	      8.84942221	    -10.67593966	      5.28567149	      3.34586566	     29.59208329	    -17.95783155	     -0.64634848	     85.33956018	     44.54774499	      0.00000000	      0.00000000	      3.64912357	    -11.09625111	     -7.57402521	     39.75502283	     46.76146300	      0.00000000	      0.00000000
     53.54400000	     -2.87673278	     -4.47376781	      6.48463269	      1.03016540	      0.93028843	      0.51724479	      7.38228943	      2.03150950	    -17.18207200	     14.82717403	     14.82717403	     11.75238745	     -2.01192450	     -7.83195044	     31.48198967	    -10.22005105	      1.25566606	     19.79474332	     19.79474332	      7.38253502	     -7.10572103	      8.46253535	    -10.59689757	      5.30417895	      3.45344291	     30.66994363	    -17.90184540	     -0.81868005	     87.79246290	     44.50846628	      0.00000000	      0.00000000	      3.69795559	    -11.06035335	     -7.55399528	     38.41874901	     46.72746595	      0.00000000	      0.00000000
     53.55671429	     -2.95145784	     -4.43718224	      6.65777438	      1.02984080	      0.93025128	      0.51588906	      6.91900343	      1.99860190	    -17.24299653	     14.46389037	     14.46389037	     11.87736760	     -1.99497222	     -7.82042379	     31.55706591	     -9.91948535	      1.18768170	     19.38383927	     19.38383927	      7.22770708	     -6.74495254	      8.35485906	    -10.52642871	      5.28949928	      3.30110730	     32.08803097	    -17.48195992	     -0.85927766	     89.54101591	     44.46893722	      0.00000000	      0.00000000	      3.33161171	    -11.15773462	     -7.52254359	     37.65253546	     46.70756582	      0.00000000	      0.00000000
     53.56942857	     -3.02399684	     -4.47179653	      6.81248030	      1.02983138	      0.93011808	      0.51441157	      6.37026177	      2.05476782	    -17.33135463	     13.96475931	     13.96475931	     11.99008009	     -1.84965596	     -7.90471713	     31.64282782	     -9.71579112	      1.02539842	     19.42531504	     19.42531504	      6.94670030	     -6.70235205	      7.71736392	    -10.40142116	      5.34824099	      3.48808124	     32.94575113	    -17.57005583	     -0.74615122	     92.03908060	     44.41670012	      0.00000000	      0.00000000	      3.36927507	    -11.08600536	     -7.53325412	     36.37066753	     46.68299130	      0.00000000	      0.00000000
     53.58214286	     -3.06239561	     -4.49559274	      6.91743381	      1.03000179	      0.92995320	      0.51285216	      5.79955484	      2.08966318	    -17.39158911	     13.51350740	     13.51350740	     12.08882298	     -1.68812819	     -7.89685132	     31.66427122	     -9.52863102	      0.77808297	     19.86758706	     19.86758706	      6.74208587	     -7.09720469	      7.40783208	    -10.28128056	      5.41688349	      3.43087636	     34.17020556	    -17.20500357	     -0.80866977	     93.77434107	     44.38206075	      0.00000000	      0.00000000	      3.04584812	    -11.14906881	     -7.51108382	     35.56798304	     46.66279811	      0.00000000	      0.00000000
     53.59485714	     -3.06838960	     -4.56725261	      7.00327439	      1.03044685	      0.92969162	      0.51118853	      5.16332312	      2.17613887	    -17.47535560	     13.03917261	     13.03917261	     12.25795466	     -1.44421526	     -7.92761869	     31.56386022	     -9.40727295	      0.48526104	     20.51545654	     20.51545654	      6.53013894	     -7.65346362	      7.09231760	    -10.15872491	      5.52189910	      3.44933515	     35.19501235	    -16.94203326	     -0.77932379	     95.44872188	     44.34488606	      0.00000000	      0.00000000	      2.74368873	    -11.16531589	     -7.49475253	     34.83813644	     46.64515119	      0.00000000	      0.00000000
     53.60757143	     -3.17507150	     -4.52515794	      6.95258376	      1.03113917	      0.92927394	      0.50950512	      4.71556199	      2.09463769	    -17.37869209	     12.77636444	     12.77636444	     12.48360729	     -1.30741595	     -7.95422913	     31.33502587	     -9.23451865	     -0.05731034	     21.16681598	     21.16681598	      6.34420806	     -8.20263356	      7.03235415	     -9.83155742	      5.40796511	      3.70822592	     36.11337882	    -16.91091203	     -0.86731872	     96.13796135	     44.33232231	      0.00000000	      0.00000000	      2.32731216	    -11.14520048	     -7.49322498	     34.52277912	     46.63609850	      0.00000000	      0.00000000
     53.62028571	     -3.05302316	     -4.77081533	      7.05556324	      1.03218271	      0.92883735	      0.50761218	      3.81975313	      2.39335548	    -17.60711386	     12.11860107	     12.11860107	     12.65370612	     -0.78179410	     -7.98410973	     30.99720947	     -9.28494118	     -0.19571273	     22.14893926	     22.14893926	      6.17922667	     -8.95642047	      6.73930445	     -9.80611109	      5.72960132	      3.48889238	     37.01333752	    -16.40964706	     -0.69590620	     98.24201090	     44.27516088	      0.00000000	      0.00000000	      1.97077175	    -11.20083952	     -7.46850206	     33.77988177	     46.61846502	      0.00000000	      0.00000000
